<svg xmlns="http://www.w3.org/2000/svg" viewBox="0 0 179.07 154.2"><defs><style>.cls-1{fill:#fff;}</style></defs><g id="Warstwa_2" data-name="Warstwa 2"><g id="Warstwa_1-2" data-name="Warstwa 1"><path class="cls-1" d="M70.49,63.64c-22,0-46.79-7.69-57.23-17.89C9.77,42.34,8,38.76,8,35.11s1.77-7.23,5.26-10.64C24,13.94,50.09,6.1,72.59,6.61c28.25.65,49.86,14.2,63,25.46l3.55,3-3.55,3c-13.15,11.26-34.76,24.82-63,25.46Q71.54,63.64,70.49,63.64Zm.24-49c-17.66,0-42.14,6.09-51.88,15.6C17,32,16,33.74,16,35.11s1,3.12,2.85,4.92c10,9.83,35.82,16,53.56,15.58,23.41-.53,42-10.83,54.28-20.5-12.33-9.66-30.87-20-54.28-20.5Z"/><path class="cls-1" d="M49,51.11A4,4,0,0,1,46.18,50a4,4,0,0,1,0-5.66c.77-.77,4.56-4.91,3.87-10.71A12.89,12.89,0,0,0,46.2,26a4,4,0,0,1,5.6-5.72A21,21,0,0,1,58,32.64c1.12,9.46-4.91,16.06-6.13,17.29A4,4,0,0,1,49,51.11Z"/><path class="cls-1" d="M163,70.23a4,4,0,0,1-2.83-1.18L139.38,48.26A4,4,0,1,1,145,42.6l14,14V13.66L144.07,28.58a4,4,0,0,1-5.65-5.65L160.17,1.17A4,4,0,0,1,167,4V66.23a4,4,0,0,1-2.47,3.69A3.88,3.88,0,0,1,163,70.23Z"/><path class="cls-1" d="M175.07,108.2c-6.88,0-13.11-4.45-19.13-8.75-5-3.57-10.16-7.25-14.48-7.25S132,95.88,127,99.45c-6,4.3-12.25,8.75-19.14,8.75s-13.11-4.45-19.13-8.75c-5-3.57-10.16-7.25-14.48-7.25s-9.49,3.68-14.48,7.25c-6,4.3-12.25,8.75-19.14,8.75s-13.11-4.45-19.13-8.75C16.49,95.88,11.32,92.2,7,92.2a4,4,0,0,1,0-8c6.88,0,13.11,4.44,19.13,8.74,5,3.57,10.16,7.26,14.48,7.26s9.49-3.69,14.49-7.26c6-4.3,12.25-8.74,19.13-8.74s13.11,4.44,19.13,8.74c5,3.57,10.16,7.26,14.48,7.26s9.49-3.69,14.49-7.26c6-4.3,12.25-8.74,19.13-8.74s13.11,4.44,19.13,8.74c5,3.57,10.16,7.26,14.48,7.26a4,4,0,0,1,0,8Z"/><path class="cls-1" d="M172.07,131.2c-6.88,0-13.11-4.45-19.13-8.75-5-3.57-10.16-7.25-14.48-7.25S129,118.88,124,122.45c-6,4.3-12.25,8.75-19.14,8.75s-13.11-4.45-19.13-8.75c-5-3.57-10.16-7.25-14.48-7.25s-9.49,3.68-14.48,7.25c-6,4.3-12.25,8.75-19.14,8.75s-13.11-4.45-19.13-8.75c-5-3.57-10.16-7.25-14.48-7.25a4,4,0,0,1,0-8c6.88,0,13.11,4.44,19.13,8.74,5,3.57,10.16,7.26,14.48,7.26s9.49-3.69,14.49-7.26c6-4.3,12.25-8.74,19.13-8.74s13.11,4.44,19.13,8.74c5,3.57,10.16,7.26,14.48,7.26s9.49-3.69,14.49-7.26c6-4.3,12.25-8.74,19.13-8.74s13.11,4.44,19.13,8.74c5,3.57,10.16,7.26,14.48,7.26a4,4,0,1,1,0,8Z"/><path class="cls-1" d="M172.07,154.2c-6.88,0-13.11-4.45-19.13-8.75-5-3.57-10.16-7.25-14.48-7.25S129,141.88,124,145.45c-6,4.3-12.25,8.75-19.14,8.75s-13.11-4.45-19.13-8.75c-5-3.57-10.16-7.25-14.48-7.25s-9.49,3.68-14.48,7.25c-6,4.3-12.25,8.75-19.14,8.75s-13.11-4.45-19.13-8.75c-5-3.57-10.16-7.25-14.48-7.25a4,4,0,0,1,0-8c6.88,0,13.11,4.44,19.13,8.74,5,3.57,10.16,7.26,14.48,7.26s9.49-3.69,14.49-7.26c6-4.3,12.25-8.74,19.13-8.74s13.11,4.44,19.13,8.74c5,3.57,10.16,7.26,14.48,7.26s9.49-3.69,14.49-7.26c6-4.3,12.25-8.74,19.13-8.74s13.11,4.44,19.13,8.74c5,3.57,10.16,7.26,14.48,7.26a4,4,0,0,1,0,8Z"/></g></g></svg>