<svg xmlns="http://www.w3.org/2000/svg" viewBox="0 0 179.07 172.78"><defs><style>.cls-1{fill:#fff;}</style></defs><g id="Warstwa_2" data-name="Warstwa 2"><g id="Warstwa_1-2" data-name="Warstwa 1"><path class="cls-1" d="M175.07,118.78c-4.32,0-9.48-3.68-14.48-7.25-6-4.3-12.25-8.75-19.13-8.75s-13.11,4.45-19.13,8.75c-5,3.57-10.16,7.25-14.49,7.25s-9.48-3.68-14.48-7.25c-6-4.3-12.25-8.75-19.13-8.75s-13.11,4.45-19.13,8.75c-5,3.57-10.16,7.25-14.48,7.25s-9.49-3.68-14.49-7.25c-6-4.3-12.25-8.75-19.13-8.75a4,4,0,0,0,0,8c4.32,0,9.49,3.69,14.48,7.26,6,4.3,12.25,8.74,19.14,8.74s13.11-4.44,19.13-8.74c5-3.57,10.16-7.26,14.48-7.26s9.49,3.69,14.48,7.26c6,4.3,12.25,8.74,19.13,8.74S121,122.34,127,118c5-3.57,10.16-7.26,14.48-7.26s9.49,3.69,14.48,7.26c6,4.3,12.25,8.74,19.13,8.74a4,4,0,0,0,0-8Z"/><path class="cls-1" d="M172.07,141.78c-4.32,0-9.48-3.68-14.48-7.25-6-4.3-12.25-8.75-19.13-8.75s-13.11,4.45-19.13,8.75c-5,3.57-10.16,7.25-14.49,7.25s-9.48-3.68-14.48-7.25c-6-4.3-12.25-8.75-19.13-8.75s-13.11,4.45-19.13,8.75c-5,3.57-10.16,7.25-14.48,7.25s-9.49-3.68-14.49-7.25c-6-4.3-12.25-8.75-19.13-8.75a4,4,0,0,0,0,8c4.32,0,9.49,3.69,14.48,7.26,6,4.3,12.25,8.74,19.14,8.74s13.11-4.44,19.13-8.74c5-3.57,10.16-7.26,14.48-7.26s9.49,3.69,14.48,7.26c6,4.3,12.25,8.74,19.13,8.74S118,145.34,124,141c5-3.57,10.16-7.26,14.48-7.26s9.49,3.69,14.48,7.26c6,4.3,12.25,8.74,19.13,8.74a4,4,0,0,0,0-8Z"/><path class="cls-1" d="M172.07,164.78c-4.32,0-9.48-3.68-14.48-7.25-6-4.3-12.25-8.75-19.13-8.75s-13.11,4.45-19.13,8.75c-5,3.57-10.16,7.25-14.49,7.25s-9.48-3.68-14.48-7.25c-6-4.3-12.25-8.75-19.13-8.75s-13.11,4.45-19.13,8.75c-5,3.57-10.16,7.25-14.48,7.25s-9.49-3.68-14.49-7.25c-6-4.3-12.25-8.75-19.13-8.75a4,4,0,0,0,0,8c4.32,0,9.49,3.69,14.48,7.26,6,4.3,12.25,8.74,19.14,8.74s13.11-4.44,19.13-8.74c5-3.57,10.16-7.26,14.48-7.26s9.49,3.69,14.48,7.26c6,4.3,12.25,8.74,19.13,8.74S118,168.34,124,164c5-3.57,10.16-7.26,14.48-7.26s9.49,3.69,14.48,7.26c6,4.3,12.25,8.74,19.13,8.74a4,4,0,0,0,0-8Z"/><path class="cls-1" d="M56.05,48.46A59.32,59.32,0,0,0,88.9,72.62a125.06,125.06,0,0,1,3,26.39,4,4,0,0,0,4,4h0a4,4,0,0,0,4-4c0-3.25-.17-6.86-.52-10.75,1,.1,2.24.17,3.53.17a32.14,32.14,0,0,0,22-8.26h0c12.75-11.56,10.48-27.57,10.18-29.36l-.43-2.53-2.48-.67c-1.64-.44-15.53-3.81-27.76,5.27a47.89,47.89,0,0,0-9.81-34.61C80.32,0,58.66-.18,52.87.11a4,4,0,0,0-2.52.21L48.79.47l-.38,1.61a3.88,3.88,0,0,0-.47,2C46.52,10.76,44,29.93,56.05,48.46Zm6.7-4.37a50.87,50.87,0,0,1-7.9-32A120.1,120.1,0,0,1,76.43,39.94a119.88,119.88,0,0,1,10,23.36A50.45,50.45,0,0,1,62.75,44.09Zm44.58,16.68c7.17-6.5,15.78-6.49,20.07-6,.1,4.32-.72,12.9-7.89,19.4h0c-7.16,6.5-15.78,6.49-20.06,6C99.34,75.85,100.17,67.27,107.33,60.77Zm-19-37.61a40.43,40.43,0,0,1,6,38.43A127.89,127.89,0,0,0,83.41,36,128.21,128.21,0,0,0,62.89,8.73C70.52,10,80.77,13.56,88.29,23.16Z"/></g></g></svg>