<svg xmlns="http://www.w3.org/2000/svg" viewBox="0 0 226 135.86"><defs><style>.cls-1{fill:#fff;}</style></defs><g id="Warstwa_2" data-name="Warstwa 2"><g id="Warstwa_1-2" data-name="Warstwa 1"><path class="cls-1" d="M183.42,50.71A42.5,42.5,0,0,0,173.14,52l-7.22-21.08,3.65-26.34a4,4,0,1,0-7.92-1.1l-3.3,23.83H88l-4.58-11h9.66a4,4,0,0,0,0-8H66a4,4,0,1,0,0,8h9.07a4,4,0,0,0,.31,1.53l4.55,10.94-.13.13L61,53.92A42.57,42.57,0,1,0,85.14,92.6l23.09-1.32a4,4,0,0,0,2.65-1.22l49.29-51.27,5.42,15.85a42.55,42.55,0,1,0,17.83-3.93ZM83.49,37.29l19.27,46.29-18.31,1A42.69,42.69,0,0,0,67.9,58.08Zm-7.1,47.79-30,1.72L63.1,64.48A34.62,34.62,0,0,1,76.39,85.08ZM42.58,126.86A34.58,34.58,0,1,1,56.11,60.47L34.8,88.88a4,4,0,0,0,3.2,6.4h.23l38.9-2.23A34.61,34.61,0,0,1,42.58,126.86Zm67.21-47.21L91.32,35.28h61.12Zm73.63,48.21A34.57,34.57,0,0,1,168.2,62.25l11.05,32.33a4,4,0,0,0,3.79,2.7,3.83,3.83,0,0,0,1.29-.21,4,4,0,0,0,2.5-5.08L175.74,59.58a34.57,34.57,0,1,1,7.68,68.28Z"/></g></g></svg>