<svg xmlns="http://www.w3.org/2000/svg" viewBox="0 0 165.56 159.4"><defs><style>.cls-1{fill:#fff;}</style></defs><g id="Warstwa_2" data-name="Warstwa 2"><g id="Warstwa_1-2" data-name="Warstwa 1"><path class="cls-1" d="M96.77.3a4,4,0,0,0-4.36.87L43.8,49.78H4a4,4,0,0,0-4,4v51.84a4,4,0,0,0,4,4H43.8l48.61,48.61a4,4,0,0,0,2.83,1.17,4.12,4.12,0,0,0,1.53-.3,4,4,0,0,0,2.46-3.7V4A4,4,0,0,0,96.77.3ZM8,57.78H41.75v43.84H8Zm83.23,88L49.75,104.26V55.15L91.23,13.66Z"/><path class="cls-1" d="M144.32,79.7l20.06-20.06A4,4,0,1,0,158.73,54L138.66,74,118.6,54a4,4,0,0,0-5.66,5.66L133,79.7,112.94,99.77a4,4,0,0,0,5.66,5.65l20.06-20.06,20.07,20.06a4,4,0,1,0,5.65-5.65Z"/></g></g></svg>