<svg xmlns="http://www.w3.org/2000/svg" viewBox="0 0 188 179"><defs><style>.cls-1{fill:#fff;}</style></defs><g id="Warstwa_2" data-name="Warstwa 2"><g id="Warstwa_1-2" data-name="Warstwa 1"><path class="cls-1" d="M144.5,66a33,33,0,1,1,33-33A33,33,0,0,1,144.5,66Zm0-58a25,25,0,1,0,25,25A25,25,0,0,0,144.5,8Z"/><path class="cls-1" d="M188,179H144.5a4,4,0,0,1,0-8H180V117.5a35.53,35.53,0,0,0-47.67-33.36,4,4,0,1,1-2.74-7.52A43.54,43.54,0,0,1,188,117.5Z"/><path class="cls-1" d="M43.5,66a33,33,0,1,1,33-33A33,33,0,0,1,43.5,66Zm0-58a25,25,0,1,0,25,25A25,25,0,0,0,43.5,8Z"/><path class="cls-1" d="M43.5,179H0V117.5A43.53,43.53,0,0,1,60.3,77.36a4,4,0,1,1-3.09,7.38A35.53,35.53,0,0,0,8,117.5V171H43.5a4,4,0,0,1,0,8Z"/><path class="cls-1" d="M94,111.11A26.13,26.13,0,1,1,120.12,85,26.15,26.15,0,0,1,94,111.11Zm0-44.25A18.13,18.13,0,1,0,112.12,85,18.14,18.14,0,0,0,94,66.86Z"/><path class="cls-1" d="M128.13,179H59.87V142.67a27.39,27.39,0,0,1,27.36-27.36h13.54a27.39,27.39,0,0,1,27.36,27.36Zm-60.26-8h52.26V142.67a19.38,19.38,0,0,0-19.36-19.36H87.23a19.38,19.38,0,0,0-19.36,19.36Z"/></g></g></svg>