<svg xmlns="http://www.w3.org/2000/svg" viewBox="0 0 149.75 170.62"><defs><style>.cls-1{fill:#fff;}</style></defs><g id="Warstwa_2" data-name="Warstwa 2"><g id="Warstwa_1-2" data-name="Warstwa 1"><path class="cls-1" d="M45,170.62H35a35,35,0,0,1-35-35v-53a4,4,0,0,1,4-4H76a4,4,0,0,1,4,4v53A35,35,0,0,1,45,170.62Zm-37-84v49a27,27,0,0,0,27,27H45a27,27,0,0,0,27-27v-49Z"/><path class="cls-1" d="M105.1,137.41H88a4,4,0,0,1,0-8h13.1V96.62H88a4,4,0,0,1,0-8h17.1a4,4,0,0,1,4,4v40.79A4,4,0,0,1,105.1,137.41Z"/><path class="cls-1" d="M33,72.62a4,4,0,0,1-3.56-2.17,39.8,39.8,0,0,1,0-36.67,4,4,0,1,1,7.11,3.67,31.76,31.76,0,0,0,0,29.33A4,4,0,0,1,33,72.62Z"/><path class="cls-1" d="M47,51.62a4,4,0,0,1-3.55-5.84,31.76,31.76,0,0,0,0-29.33,4,4,0,0,1,7.11-3.67,39.8,39.8,0,0,1,0,36.67A4,4,0,0,1,47,51.62Z"/><path class="cls-1" d="M121.5,170.61c-9.3,0-19.27-6.46-28.51-18.63a4,4,0,1,1,6.37-4.84C107.93,158.42,117,164,124.1,162.32c7.47-1.7,13.31-11.22,16-26.1,2.95-16.26,1.92-36.83-2.9-57.93s-12.83-40.07-22.55-53.44C105.77,12.62,96.38,6.59,88.9,8.29c-12.23,2.8-19.34,25.86-17.29,56.1a4,4,0,0,1-8,.54C61.23,29.59,70.45,4.3,87.12.49,98-2,110.1,5,121.13,20.15,131.47,34.37,140,54.38,145,76.51s6.11,43.84,3,61.14c-3.35,18.45-11.2,30-22.1,32.47A19.54,19.54,0,0,1,121.5,170.61Z"/><path class="cls-1" d="M79.44,57.58a4,4,0,0,1-.88-7.9l35-7.94a4,4,0,1,1,1.77,7.8l-35,7.94A3.86,3.86,0,0,1,79.44,57.58Z"/><path class="cls-1" d="M86.39,83.59a4,4,0,0,1-.88-7.9l35-7.94a4,4,0,0,1,1.77,7.8l-35,7.94A3.92,3.92,0,0,1,86.39,83.59Z"/><path class="cls-1" d="M118.19,103.74a4,4,0,0,1-.88-7.9l9.21-2.09a4,4,0,1,1,1.77,7.8l-9.22,2.09A3.77,3.77,0,0,1,118.19,103.74Z"/><path class="cls-1" d="M118.19,130.88a4,4,0,0,1-.88-7.91l14.26-3.23a4,4,0,0,1,1.77,7.8l-14.26,3.24A4.58,4.58,0,0,1,118.19,130.88Z"/></g></g></svg>